# xmcd
#
# Track frame offsets: 
#        150
#        28015
#        60050
#        76692
#        101160
#        134357
#        164947
#        184135
#        211162
#        225180
#        243880
#
# Disc length: 3794 seconds
#
# Revision: 1
# Processed by: cddbd v1.5.2PL0 Copyright (c) Steve Scherf et al.
# Submitted via: ExactAudioCopy v0.99pb3
#
DISCID=830ed00b
DTITLE=Project G-5 - A Tribute To Wes Montgomery
DYEAR=1992
DGENRE=Jazz
TTITLE0=Wes
TTITLE1=Days Of Wine And Roses
TTITLE2=Four On Six
TTITLE3=Darn That Dream
TTITLE4=Besame Mucho
TTITLE5=Gone With The Wind
TTITLE6=West Coast Blues
TTITLE7=Yesterdays
TTITLE8=Body And Soul
TTITLE9=The End Of A Love Affair
TTITLE10=Naptown Blues
EXTD=YEAR: 1992
EXTT0=
EXTT1=
EXTT2=
EXTT3=
EXTT4=
EXTT5=
EXTT6=
EXTT7=
EXTT8=
EXTT9=
EXTT10=
PLAYORDER=
